<svg xmlns="http://www.w3.org/2000/svg" width="30" viewBox="0 0 30 25">
						<path d="M10.39.25C8.13.72 6.23 2.44 5.54 4.64c-.62 1.95-.32 3.93.84 5.66.37.55 1.05 1.22 1.65 1.63.29.2.45.34.4.36s-.37.12-.73.24c-.81.26-2.12.91-2.81 1.37-2.28 1.54-3.84 3.65-4.52 6.09C.09 21.01-.02 22 0 23.39l.02 1.13.19.17c.26.23.63.24.86.01.08-.08.16-.21.18-.28.01-.07.04-.7.05-1.41.05-1.98.27-2.96.98-4.38.42-.84.91-1.49 1.75-2.34.92-.93 1.64-1.45 2.71-1.98 1.66-.81 3.13-1.15 5.02-1.14 1.45 0 2.41.17 3.76.64 2.71.94 4.99 3.04 5.98 5.53.47 1.18.63 2.1.63 3.65 0 .63.02 1.24.04 1.34.13.67 1.07.73 1.25.08.07-.27.08-1.51 0-2.46-.11-1.37-.39-2.41-.96-3.63-1.21-2.52-3.36-4.49-6.1-5.58-.32-.13-.7-.26-.84-.3-.6-.16-.6-.15-.18-.43 1.11-.74 2.06-1.95 2.51-3.19a6.47 6.47 0 0 0-1.37-6.62 6.69 6.69 0 0 0-3.6-1.98c-.65-.12-1.85-.1-2.5.04Zm2.62 1.31c1.99.55 3.43 2.09 3.83 4.07.12.6.09 1.77-.06 2.32-.12.45-.54 1.32-.81 1.7a5.287 5.287 0 0 1-3.01 2.03c-.7.18-1.83.18-2.5 0-2.5-.66-4.18-3.07-3.9-5.59.27-2.36 1.98-4.2 4.32-4.62.41-.08 1.75-.02 2.13.08Z"/>
						<path d="M20.58 2.8c-.27.13-.4.45-.32.73.1.33.28.44.81.49.67.06.93.13 1.54.43.78.38 1.34.93 1.72 1.71.35.7.47 1.26.43 1.96a3.907 3.907 0 0 1-3.46 3.67c-.69.08-.9.16-1.01.44-.07.18-.08.26-.02.44.1.34.3.43 1.01.49 2.78.19 5.05 1.49 6.39 3.67.73 1.18 1.03 2.4 1.03 4.23 0 .67.01.77.12.93.27.39.9.33 1.08-.09.06-.15.09-.45.09-1.13 0-1.55-.22-2.63-.8-3.82-.72-1.51-1.78-2.71-3.22-3.63-.46-.3-1.42-.77-1.89-.91-.17-.06-.31-.13-.31-.16s.02-.05.05-.05c.11 0 1.01-.9 1.27-1.25a5.213 5.213 0 0 0 0-6.05c-.36-.5-1.11-1.18-1.63-1.48-.99-.56-2.4-.87-2.9-.62Z"/>
					</svg>